<?xml version="1.0" encoding="utf-8"?>
<!-- Generator: Adobe Illustrator 22.0.0, SVG Export Plug-In . SVG Version: 6.00 Build 0)  -->
<svg version="1.1" id="Layer_1" xmlns="http://www.w3.org/2000/svg" xmlns:xlink="http://www.w3.org/1999/xlink" x="0px" y="0px"
	 viewBox="0 0 550 90" style="enable-background:new 0 0 550 90;" xml:space="preserve">
<g>
	<path d="M46.8,28.8v33.2l6.6,1.3v3H32v-2.5c2.2-0.9,4.3-1.4,6.3-1.8l0.3-14.3H18.9v14.3l6.3,1.3v3H3.8v-2.7
		c2.2-0.8,4.4-1.3,6.6-1.7l0.7-33l-7.3-1.8v-2.9h21.4V27c-1.9,0.7-4.1,1.3-6.3,1.8v13.8h19.8L39,28.8l-7-1.6v-2.9h21.4V27
		C51.3,27.7,49.1,28.3,46.8,28.8z"/>
	<path d="M101.6,42.2h-3.1l-3.1-12.7H85.1v32.6l8.6,1.3v3H67.9v-2.7c2.9-0.8,5.8-1.3,8.7-1.7l0.7-32.4H66.9l-3.2,12.7h-3V24.4h41
		v17.8H101.6z"/>
	<path d="M161.2,43.8v22.5h-41.9v-2.8c2.8-1,5.4-1.7,8-2l0.8-41.9l-8.7-1.8v-3.1h26.2v2.8c-2.8,0.8-6,1.6-9.4,2v41.4h18.4l3.5-17.2
		H161.2z"/>
	<path d="M199.6,59.4c-4.5,5-9.9,7.6-15.4,7.6c-10,0-16.7-7.8-16.7-19.4c0-12.2,7-20.5,17.7-20.5c8.9,0,14.4,5.8,14.4,14.5l-0.3,4.9
		c-8.3,1.7-14.7,2.3-24,2.7c0.9,7.8,5.6,11.5,12.5,11.5c3.3,0,7.2-0.9,11.4-2.8L199.6,59.4z M177.9,34.4c-1.7,3.2-2.7,7-2.9,10.6
		l16.9-0.1l0.3-3.5c0-5.2-3-8.6-8.1-8.6C182.1,32.6,179.8,33.3,177.9,34.4z"/>
	<path d="M217.3,27.7l12.7,0.1l-0.4,4.5h-12.2v27.8l12.7-0.1c-2.3,4.4-7,6.8-11.5,6.8c-3.9,0-7.5-1.7-9.4-5.4l1-29H204v-1.6
		c3.7-4.1,8.2-7.8,13.5-10.5v7.4H217.3z"/>
	<path d="M245.6,27.7l12.7,0.1l-0.4,4.5h-12.2v27.8l12.7-0.1c-2.3,4.4-7,6.8-11.5,6.8c-3.9,0-7.5-1.7-9.4-5.4l1-29h-6.2v-1.6
		c3.7-4.1,8.2-7.8,13.5-10.5v7.4H245.6z"/>
	<path d="M293.8,59.4c-4.5,5-9.9,7.6-15.4,7.6c-10,0-16.7-7.8-16.7-19.4c0-12.2,7-20.5,17.7-20.5c8.9,0,14.4,5.8,14.4,14.5l-0.3,4.9
		c-8.3,1.7-14.7,2.3-24,2.7c0.9,7.8,5.6,11.5,12.5,11.5c3.3,0,7.2-0.9,11.4-2.8L293.8,59.4z M272.1,34.4c-1.7,3.2-2.7,7-2.9,10.6
		l16.9-0.1l0.3-3.5c0-5.2-3-8.6-8.1-8.6C276.3,32.6,274.1,33.3,272.1,34.4z"/>
	<path d="M325.6,29.1l-0.9,6.2c-1-0.1-2-0.2-3-0.2c-3.5,0-7,0.9-10.3,2.5v24.4l7.6,1.7v2.7h-20.7v-2.4c1.3-0.7,2.8-1.4,5-2l0.8-24.6
		l-4.7-6.3c3.7-2.1,7.4-3.3,11.3-3.8l0.8,8.7c2.5-3.3,5.3-6,8.5-8.3C322,27.5,323.9,28.1,325.6,29.1z"/>
	<path d="M358.1,55.9c0,6.9-7.2,11-17.3,11c-3.8,0-8-0.7-12.4-1.9l0.2-12.1h3.2l2.3,7.1c4.5,0.8,9.2,1.2,14,1
		c1.6-0.8,2.7-2.3,2.7-3.9c0-6.5-21.7-7.2-21.7-19.3c0-6.6,6.6-10.7,16.4-10.7c3.4,0,7.2,0.6,11.2,1.6L356.4,40h-3.1l-2.2-6.2
		c-3.9-0.7-8-1-12.5-0.9c-1.3,0.7-2.1,2-2.1,3.5C336.6,43.6,358.1,44.1,358.1,55.9z"/>
	<path d="M381,67c-1.8,0-3.7-0.2-5.6-0.6v10.9l6.8,1.6v2.5h-19.8V79c1.2-0.7,2.8-1.4,4.9-1.9l0.8-40l-4.5-6.3
		c3.5-2.1,7.4-3.3,11.3-3.8l0.7,7.6c2.4-2.9,5.3-5.3,8.5-7.5c10.4-0.7,17.3,7,17.3,19C401.2,59.3,393.2,67,381,67z M383.6,34.3
		c-2.8,0-5.4,0.9-8.1,2.5v23.5c2.3,0.6,4.3,0.8,6.2,0.8c7.9,0,11.6-4.8,11.6-13.6c0-4-0.8-7.9-2.5-11.2
		C388.3,34.9,385.9,34.3,383.6,34.3z"/>
	<path d="M443.7,59.7c-0.7,4.5-4,7-7.4,7c-3.2,0-6.4-2.2-7.8-6.5c-2.8,3-5.9,5.1-9.6,6.9c-7.5-0.1-12.4-4.2-12.4-10.5
		c0-5.8,4-8,22.4-12.7l0.3-7.5c-3-2.4-6.8-3.7-10.9-3.7c-1.2,0-2.4,0.1-3.5,0.3l-1.2,9.3c-4.1-0.4-6.3-2.4-6.3-5.3
		c0-5.3,6.5-9.6,14.5-9.6c5.6,0,10.7,2.2,14.3,6.4v26.6L443.7,59.7z M428.4,58.5l0.4-10.6l-13.7,2.8c-0.3,1.4-0.6,2.9-0.6,4.1
		c0,4.2,2.1,6.4,5.9,6.4C422.9,61.1,425.5,60.2,428.4,58.5z"/>
	<path d="M476,59.5c-4.2,5.1-8.7,7.4-13.8,7.4c-9.3,0-15.8-7.8-15.8-19.6c0-12.5,7.3-20.3,18.3-20.3c3.3,0,7,0.7,10.4,2.2l-0.2,12
		h-2.9l-2.5-7.5c-1.9-0.4-3.8-0.7-5.6-0.7c-2.3,0-4.7,0.4-7,1c-1.7,3.9-2.5,8.1-2.5,12.1c0,9.4,4.9,14.6,11.6,14.6
		c2.8,0,6-0.9,9.3-2.7L476,59.5z"/>
	<path d="M513.1,59.4c-4.5,5-9.9,7.6-15.4,7.6c-10,0-16.7-7.8-16.7-19.4c0-12.2,7-20.5,17.7-20.5c8.9,0,14.4,5.8,14.4,14.5l-0.3,4.9
		c-8.3,1.7-14.7,2.3-24,2.7c0.9,7.8,5.6,11.5,12.5,11.5c3.3,0,7.2-0.9,11.4-2.8L513.1,59.4z M491.4,34.4c-1.7,3.2-2.7,7-2.9,10.6
		l16.9-0.1l0.3-3.5c0-5.2-3-8.6-8.1-8.6C495.7,32.6,493.5,33.3,491.4,34.4z"/>
	<path d="M545,29.1l-0.9,6.2c-1-0.1-2-0.2-3-0.2c-3.5,0-7,0.9-10.3,2.5v24.4l7.6,1.7v2.7h-20.8v-2.4c1.3-0.7,2.8-1.4,5-2l0.8-24.6
		l-4.7-6.3c3.7-2.1,7.4-3.3,11.3-3.8l0.8,8.6c2.5-3.3,5.3-6,8.5-8.3C541.5,27.5,543.3,28.1,545,29.1z"/>
</g>
</svg>
