<?xml version="1.0" encoding="utf-8"?>
<!-- Generator: Adobe Illustrator 19.0.1, SVG Export Plug-In . SVG Version: 6.00 Build 0)  -->
<svg version="1.1" id="Layer_1" xmlns="http://www.w3.org/2000/svg" xmlns:xlink="http://www.w3.org/1999/xlink" x="0px" y="0px"
	 viewBox="0 0 1024 768" style="enable-background:new 0 0 1024 768;" xml:space="preserve">
<linearGradient id="SVGID_1_" gradientUnits="userSpaceOnUse" x1="121.5059" y1="1078.2527" x2="365.5059" y2="1078.2527">
	<stop  offset="0" style="stop-color:#F1F2F2"/>
	<stop  offset="1" style="stop-color:#FFFFFF"/>
</linearGradient>
<path style="fill:url(#SVGID_1_);" d="M243.5,986.8c48,0,74,32.5,74,91.5c0,59-26,91.5-74,91.5s-74-32.5-74-91.5
	C169.5,1019.3,195.5,986.8,243.5,986.8z M243.5,945.3c-77.5,0-122,49-122,133c0,84,44.5,133,122,133s122-49,122-133
	C365.5,994.3,321,945.3,243.5,945.3z"/>
<linearGradient id="SVGID_2_" gradientUnits="userSpaceOnUse" x1="411.7686" y1="1078.2527" x2="655.7686" y2="1078.2527">
	<stop  offset="0" style="stop-color:#F1F2F2"/>
	<stop  offset="1" style="stop-color:#FFFFFF"/>
</linearGradient>
<path style="fill:url(#SVGID_2_);" d="M533.8,986.8c48,0,74,32.5,74,91.5c0,59-26,91.5-74,91.5s-74-32.5-74-91.5
	C459.8,1019.3,485.8,986.8,533.8,986.8z M533.8,945.3c-77.5,0-122,49-122,133c0,84,44.5,133,122,133s122-49,122-133
	C655.8,994.3,611.3,945.3,533.8,945.3z"/>
<linearGradient id="SVGID_3_" gradientUnits="userSpaceOnUse" x1="700.5254" y1="1078.2527" x2="944.5254" y2="1078.2527">
	<stop  offset="0" style="stop-color:#F1F2F2"/>
	<stop  offset="1" style="stop-color:#FFFFFF"/>
</linearGradient>
<path style="fill:url(#SVGID_3_);" d="M822.5,986.8c48,0,74,32.5,74,91.5c0,59-26,91.5-74,91.5s-74-32.5-74-91.5
	C748.5,1019.3,774.5,986.8,822.5,986.8z M822.5,945.3c-77.5,0-122,49-122,133c0,84,44.5,133,122,133s122-49,122-133
	C944.5,994.3,900,945.3,822.5,945.3z"/>
<g>
	<polygon style="fill:#8DC63F;" points="561,263.2 561,518.8 612.5,518.2 612.5,513.2 612.5,508.2 612.5,503.2 612.5,498.2 
		612.5,493.2 612.5,488.2 612.5,483.2 612.5,478.2 612.5,473.2 612.5,468.2 612.5,463.2 612.5,458.2 612.5,453.2 612.5,448.2 
		612.5,443.2 612.5,438.2 612.5,433.2 612.5,428.2 612.5,423.2 612.5,418.2 612.5,413.2 612.5,408.2 611,403.2 609.5,398.2 
		607.5,393.2 605.5,388.2 604,383.2 602,378.2 600.5,373.2 598.5,368.2 597,363.2 595,358.2 593.5,353.2 591.5,348.2 589.5,343.2 
		588,338.2 586,333.2 584.5,328.2 582.5,323.2 581,318.2 579,313.2 577,308.2 575.5,303.2 573.5,298.2 572,293.2 570,288.2 
		568.5,283.2 566.5,278.2 565,273.2 563,268.2 	"/>
	<polygon style="fill:#8DC63F;" points="803,263.2 803,518.8 751.5,518.2 751.5,513.2 751.5,508.2 751.5,503.2 751.5,498.2 
		751.5,493.2 751.5,488.2 751.5,483.2 751.5,478.2 751.5,473.2 751.5,468.2 751.5,463.2 751.5,458.2 751.5,453.2 751.5,448.2 
		751.5,443.2 751.5,438.2 751.5,433.2 751.5,428.2 751.5,423.2 751.5,418.2 751.5,413.2 751.5,408.2 753,403.2 754.5,398.2 
		756.5,393.2 758.5,388.2 760,383.2 762,378.2 763.5,373.2 765.5,368.2 767,363.2 769,358.2 770.5,353.2 772.5,348.2 774.5,343.2 
		776,338.2 778,333.2 779.5,328.2 781.5,323.2 783,318.2 785,313.2 787,308.2 788.5,303.2 790.5,298.2 792,293.2 794,288.2 
		795.5,283.2 797.5,278.2 799,273.2 801,268.2 	"/>
	<path d="M755.5,262.7l-49,137c-9.2,25.5-16,50-23.5,73.2c-7.6-23.3-14.7-48-23.5-73.2l-49-137H561l91.5,257h26h9h24l91.5-257H755.5
		z"/>
</g>
<g>
	<polygon style="fill:#8DC63F;" points="237,262.5 237,520 288.5,518.5 288.5,513.5 288.5,508.5 286,503.5 279.5,498.5 274,493.5 
		269,488.5 264.5,483.5 261,478.5 257.5,473.5 254.5,468.5 252,463.5 249.5,458.5 247.5,453.5 246,448.5 244,443.5 242.5,438.5 
		241.5,433.5 240.5,428.5 239.5,423.5 239,418.5 238,413.5 237.5,408.5 237.5,403.5 237,398.5 237,393.5 237,388.5 237,383.5 
		237.5,378.5 237.5,373.5 238,368.5 238.5,363.5 239.5,358.5 240.5,353.5 241.5,348.5 242.5,343.5 244,338.5 245.5,333.5 247,328.5 
		249,323.5 251.5,318.5 254,313.5 257,308.5 260,303.5 264,298.5 268,293.5 273,288.5 278.5,283.5 285,278.5 288.5,273.5 
		288.5,268.5 288.5,263.5 	"/>
	<polygon style="fill:#8DC63F;" points="429.5,263.5 429.5,268.5 429.5,273.5 433,278.5 439.5,283.5 445,288.5 450,293.5 454,298.5 
		458,303.5 461,308.5 464,313.5 466.5,318.5 469,323.5 471,328.5 472.5,333.5 474,338.5 475.5,343.5 476.5,348.5 477.5,353.5 
		478.5,358.5 479.5,363.5 480,368.5 480.5,373.5 480.5,378.5 481,383.5 481,388.5 481,393.5 481,398.5 480.5,403.5 480.5,408.5 
		480,413.5 479,418.5 478.5,423.5 477.5,428.5 476.5,433.5 475.5,438.5 474,443.5 472,448.5 470.5,453.5 468.5,458.5 466,463.5 
		463.5,468.5 460.5,473.5 457,478.5 453.5,483.5 449,488.5 444,493.5 438.5,498.5 432,503.5 429.5,508.5 429.5,513.5 429.5,518.5 
		481,520 481,262.5 	"/>
	<path d="M359,299c48,0,74,32.5,74,91.5c0,59-26,91.5-74,91.5s-74-32.5-74-91.5C285,331.5,311,299,359,299z M359,257.5
		c-77.5,0-122,49-122,133c0,84,44.5,133,122,133s122-49,122-133C481,306.5,436.5,257.5,359,257.5z"/>
</g>
<text transform="matrix(1 0 0 1 336.5 184.2686)" style="font-family:'Telex-Regular'; font-size:18px;">Depth</text>
<g>
	<path d="M479.7,253.8h-1.3v-9.1h-47.8v9.1h-1.3v-10.5h50.4V253.8z"/>
</g>
<g>
	<path d="M287.9,253.8h-1.3v-9.1h-47.8v9.1h-1.3v-10.5h50.4V253.8z"/>
</g>
<polyline style="fill:none;stroke:#000000;stroke-miterlimit:10;" points="262.8,244.7 262.8,200 455.2,200 455.2,244.7 "/>
<text transform="matrix(1 0 0 1 659.8652 604.4209)" style="font-family:'Telex-Regular'; font-size:18px;">Depth</text>
<g>
	<path d="M803.1,534h-50.4v-10.5h1.3v9.1h47.8v-9.1h1.3V534z"/>
</g>
<g>
	<path d="M611.3,534h-50.4v-10.5h1.3v9.1H610v-9.1h1.3V534z"/>
</g>
<polyline style="fill:none;stroke:#000000;stroke-miterlimit:10;" points="586.1,532.6 586.1,577.3 778.6,577.3 778.6,532.6 "/>
<polygon style="fill:#8DC63F;" points="121.5,949.5 121.5,1207 173,1205.5 173,1200.5 173,1195.5 170.5,1190.5 164,1185.5 
	158.5,1180.5 153.5,1175.5 149,1170.5 145.5,1165.5 142,1160.5 139,1155.5 136.5,1150.5 134,1145.5 132,1140.5 130.5,1135.5 
	128.5,1130.5 127,1125.5 126,1120.5 125,1115.5 124,1110.5 123.5,1105.5 122.5,1100.5 122,1095.5 122,1090.5 121.5,1085.5 
	121.5,1080.5 121.5,1075.5 121.5,1070.5 122,1065.5 122,1060.5 122.5,1055.5 123,1050.5 124,1045.5 125,1040.5 126,1035.5 
	127,1030.5 128.5,1025.5 130,1020.5 131.5,1015.5 133.5,1010.5 136,1005.5 138.5,1000.5 141.5,995.5 144.5,990.5 148.5,985.5 
	152.5,980.5 157.5,975.5 163,970.5 169.5,965.5 173,960.5 173,955.5 173,950.5 "/>
<text transform="matrix(1 0 0 1 214.0059 1374.9971)" style="font-family:'Telex-Regular'; font-size:18px;">White area without sidebearings</text>
<text transform="matrix(1 0 0 1 214.0059 1442.4941)"><tspan x="0" y="0" style="font-family:'Telex-Regular'; font-size:18px;">White area compensation</tspan><tspan x="0" y="21.6" style="font-family:'Telex-Regular'; font-size:18px;">to equalize area parameter</tspan></text>
<polygon style="fill:#8DC63F;" points="411.8,949.5 411.8,1205.8 463.3,1205.5 463.3,1200.5 463.3,1195.5 460.8,1190.5 
	454.3,1185.5 448.8,1180.5 443.8,1175.5 439.3,1170.5 435.8,1165.5 432.3,1160.5 429.3,1155.5 426.8,1150.5 424.3,1145.5 
	422.3,1140.5 420.8,1135.5 418.8,1130.5 417.3,1125.5 416.3,1120.5 415.3,1115.5 414.3,1110.5 413.8,1105.5 412.8,1100.5 
	412.3,1095.5 412.3,1090.5 411.8,1085.5 411.8,1080.5 411.8,1075.5 411.8,1070.5 412.3,1065.5 412.3,1060.5 412.8,1055.5 
	413.3,1050.5 414.3,1045.5 415.3,1040.5 416.3,1035.5 417.3,1030.5 418.8,1025.5 420.3,1020.5 421.8,1015.5 423.8,1010.5 
	426.3,1005.5 428.8,1000.5 431.8,995.5 434.8,990.5 438.8,985.5 442.8,980.5 447.8,975.5 453.3,970.5 459.8,965.5 463.3,960.5 
	463.3,955.5 463.3,949.5 "/>
<rect x="386.8" y="949.5" style="fill:#00AEEF;" width="25" height="256.3"/>
<polygon style="fill:#6D6E71;" points="700,949.5 675,949.5 675,1205.8 700,1205.8 700,1207 751.5,1205.5 751.5,1200.5 
	751.5,1195.5 749,1190.5 742.5,1185.5 737,1180.5 732,1175.5 727.5,1170.5 724,1165.5 720.5,1160.5 717.5,1155.5 715,1150.5 
	712.5,1145.5 710.5,1140.5 709,1135.5 707,1130.5 705.5,1125.5 704.5,1120.5 703.5,1115.5 702.5,1110.5 702,1105.5 701,1100.5 
	700.5,1095.5 700.5,1090.5 700,1085.5 700,1080.5 700,1075.5 700,1070.5 700.5,1065.5 700.5,1060.5 701,1055.5 701.5,1050.5 
	702.5,1045.5 703.5,1040.5 704.5,1035.5 705.5,1030.5 707,1025.5 708.5,1020.5 710,1015.5 712,1010.5 714.5,1005.5 717,1000.5 
	720,995.5 723,990.5 727,985.5 731,980.5 736,975.5 741.5,970.5 748,965.5 751.5,960.5 751.5,955.5 751.5,950.5 "/>
<rect x="151.1" y="1349.8" style="fill:#8DC63F;" width="33" height="33"/>
<text transform="matrix(1 0 0 1 605.0264 1374.9971)" style="font-family:'Telex-Regular'; font-size:18px;">Contour area + Compensation</text>
<text transform="matrix(1 0 0 1 675.0264 875.9971)" style="font-family:'Telex-Regular'; font-size:18px;">New sidebearing</text>
<rect x="558.6" y="1349.8" style="fill:#6D6E71;" width="33" height="33"/>
<rect x="151.1" y="1417.3" style="fill:#00AEEF;" width="33" height="33"/>
<line style="fill:none;stroke:#00AEEF;stroke-miterlimit:10;" x1="675" y1="1205.8" x2="675" y2="913.8"/>
<line style="fill:none;stroke:#00AEEF;stroke-miterlimit:10;" x1="700.5" y1="1205.8" x2="700.5" y2="913.8"/>
<g>
	<path d="M701.2,909h-1.3v-9.1h-23.5v9.1H675v-10.5h26.1V909z"/>
</g>
<polygon style="fill:#8DC63F;" points="104,1738.3 104,1993.8 155.5,1993.3 155.5,1988.3 155.5,1983.3 155.5,1978.3 155.5,1973.3 
	155.5,1968.3 155.5,1963.3 155.5,1958.3 155.5,1953.3 155.5,1948.3 155.5,1943.3 155.5,1938.3 155.5,1933.3 155.5,1928.3 
	155.5,1923.3 155.5,1918.3 155.5,1913.3 155.5,1908.3 155.5,1903.3 155.5,1898.3 155.5,1893.3 155.5,1888.3 155.5,1883.3 
	154,1878.3 152.5,1873.3 150.5,1868.3 148.5,1863.3 147,1858.3 145,1853.3 143.5,1848.3 141.5,1843.3 140,1838.3 138,1833.3 
	136.5,1828.3 134.5,1823.3 132.5,1818.3 131,1813.3 129,1808.3 127.5,1803.3 125.5,1798.3 124,1793.3 122,1788.3 120,1783.3 
	118.5,1778.3 116.5,1773.3 115,1768.3 113,1763.3 111.5,1758.3 109.5,1753.3 108,1748.3 106,1743.3 "/>
<linearGradient id="SVGID_4_" gradientUnits="userSpaceOnUse" x1="103.9521" y1="1866.2534" x2="345.9521" y2="1866.2534">
	<stop  offset="0" style="stop-color:#F1F2F2"/>
	<stop  offset="1" style="stop-color:#FFFFFF"/>
</linearGradient>
<path style="fill:url(#SVGID_4_);" d="M298.5,1737.8l-49,137c-9.2,25.5-16,50-23.5,73.2c-7.6-23.3-14.7-48-23.5-73.2l-49-137H104
	l91.5,257h26h9h24l91.5-257H298.5z"/>
<polygon style="fill:#8DC63F;" points="385.6,1738.3 385.6,1993.8 437.1,1993.3 437.1,1988.3 437.1,1983.3 437.1,1978.3 
	437.1,1973.3 437.1,1968.3 437.1,1963.3 437.1,1958.3 437.1,1953.3 437.1,1948.3 437.1,1943.3 437.1,1938.3 437.1,1933.3 
	437.1,1928.3 437.1,1923.3 437.1,1918.3 437.1,1913.3 437.1,1908.3 437.1,1903.3 437.1,1898.3 437.1,1893.3 437.1,1888.3 
	437.1,1883.3 435.6,1878.3 434.1,1873.3 432.1,1868.3 430.1,1863.3 428.6,1858.3 426.6,1853.3 425.1,1848.3 423.1,1843.3 
	421.6,1838.3 419.6,1833.3 418.1,1828.3 416.1,1823.3 414.1,1818.3 412.6,1813.3 410.6,1808.3 409.1,1803.3 407.1,1798.3 
	405.6,1793.3 403.6,1788.3 401.6,1783.3 400.1,1778.3 398.1,1773.3 396.6,1768.3 394.6,1763.3 393.1,1758.3 391.1,1753.3 
	389.6,1748.3 387.6,1743.3 "/>
<linearGradient id="SVGID_5_" gradientUnits="userSpaceOnUse" x1="385.5576" y1="1866.2534" x2="627.5576" y2="1866.2534">
	<stop  offset="0" style="stop-color:#F1F2F2"/>
	<stop  offset="1" style="stop-color:#FFFFFF"/>
</linearGradient>
<path style="fill:url(#SVGID_5_);" d="M580.1,1737.8l-49,137c-9.2,25.5-16,50-23.5,73.2c-7.6-23.3-14.7-48-23.5-73.2l-49-137h-49.5
	l91.5,257h26h9h24l91.5-257H580.1z"/>
<rect x="378.3" y="1738.3" style="fill:#00AEEF;" width="7.2" height="255.5"/>
<linearGradient id="SVGID_6_" gradientUnits="userSpaceOnUse" x1="713.5576" y1="1866.2534" x2="955.5576" y2="1866.2534">
	<stop  offset="0" style="stop-color:#F1F2F2"/>
	<stop  offset="1" style="stop-color:#FFFFFF"/>
</linearGradient>
<path style="fill:url(#SVGID_6_);" d="M908.1,1737.8l-49,137c-9.2,25.5-16,50-23.5,73.2c-7.6-23.3-14.7-48-23.5-73.2l-49-137h-49.5
	l91.5,257h26h9h24l91.5-257H908.1z"/>
<polygon style="fill:#6D6E71;" points="763.6,1878.3 762.1,1873.3 760.1,1868.3 758.1,1863.3 756.6,1858.3 754.6,1853.3 
	753.1,1848.3 751.1,1843.3 749.6,1838.3 747.6,1833.3 746.1,1828.3 744.1,1823.3 742.1,1818.3 740.6,1813.3 738.6,1808.3 
	737.1,1803.3 735.1,1798.3 733.6,1793.3 731.6,1788.3 729.6,1783.3 728.1,1778.3 726.1,1773.3 724.6,1768.3 722.6,1763.3 
	721.1,1758.3 719.1,1753.3 717.6,1748.3 715.6,1743.3 713.6,1738.3 706.3,1738.3 706.3,1993.8 713.6,1993.8 765.1,1993.3 
	765.1,1988.3 765.1,1983.3 765.1,1978.3 765.1,1973.3 765.1,1968.3 765.1,1963.3 765.1,1958.3 765.1,1953.3 765.1,1948.3 
	765.1,1943.3 765.1,1938.3 765.1,1933.3 765.1,1928.3 765.1,1923.3 765.1,1918.3 765.1,1913.3 765.1,1908.3 765.1,1903.3 
	765.1,1898.3 765.1,1893.3 765.1,1888.3 765.1,1883.3 "/>
<text transform="matrix(1 0 0 1 705.6895 1663.9971)" style="font-family:'Telex-Regular'; font-size:18px;">New sidebearing</text>
<line style="fill:none;stroke:#00AEEF;stroke-miterlimit:10;" x1="705.7" y1="1993.8" x2="705.7" y2="1701.8"/>
<line style="fill:none;stroke:#00AEEF;stroke-miterlimit:10;" x1="713.5" y1="1993.8" x2="713.5" y2="1701.8"/>
<g>
	<path d="M714.2,1697h-1.3v-9.1H707v9.1h-1.3v-10.5h8.5V1697z"/>
</g>
<text transform="matrix(1 0 0 1 444.3965 2126.3379)" style="font-family:'Telex-Regular'; font-size:12.167px;">White area without sidebearings</text>
<text transform="matrix(1 0 0 1 444.3965 2183.9541)"><tspan x="0" y="0" style="font-family:'Telex-Regular'; font-size:12.167px;">White area compensation</tspan><tspan x="0" y="14.6" style="font-family:'Telex-Regular'; font-size:12.167px;">to equalize area parameter</tspan></text>
<rect x="401.8" y="2109.3" style="fill:#8DC63F;" width="22.3" height="22.3"/>
<text transform="matrix(1 0 0 1 444.3955 2254.499)" style="font-family:'Telex-Regular'; font-size:12.167px;">Contour area + Compensation</text>
<rect x="401.8" y="2237.5" style="fill:#6D6E71;" width="22.3" height="22.3"/>
<rect x="401.8" y="2174.1" style="fill:#00AEEF;" width="22.3" height="22.3"/>
<polygon style="fill:#8DC63F;" points="558.2,2569.5 558.2,2827 535.8,2824.5 543.2,2819.5 550.8,2814.5 558.2,2809.5 556.2,2804.5 
	554.8,2799.5 553.2,2794.5 551.2,2789.5 549.8,2784.5 548.2,2779.5 546.2,2774.5 538.8,2769.5 531.2,2764.5 523.8,2759.5 
	516.2,2754.5 508.8,2749.5 506.8,2744.5 506.8,2739.5 506.8,2734.5 506.8,2729.5 506.8,2724.5 506.8,2719.5 506.8,2714.5 
	506.8,2709.5 506.8,2704.5 506.8,2699.5 506.8,2694.5 506.8,2689.5 506.8,2684.5 506.8,2679.5 506.8,2674.5 506.8,2669.5 
	506.8,2664.5 506.8,2659.5 506.8,2654.5 506.8,2649.5 506.8,2644.5 511.2,2639.5 518.8,2634.5 526.2,2629.5 533.8,2624.5 
	541.2,2619.5 543.2,2614.5 545.8,2609.5 547.8,2604.5 550.2,2599.5 552.2,2594.5 554.2,2589.5 552.2,2584.5 544.8,2579.5 
	537.2,2574.5 529.8,2569.5 "/>
<path d="M231,2566c-77.5,0-123,49-123,132.5c0,84,43.5,132,120.5,132c26.5,0,57.5-7.5,82.5-19.5l-12.5-37.5
	c-21,9.5-45.5,15.5-64.5,15.5c-50.5,0-78-32-78-90.5c0-58,27-91,75-91c20.5,0,39.5,5.5,61,17.5l16.5-37.5
	C284.5,2573.5,257,2566,231,2566z"/>
<line style="fill:none;stroke:#00AEEF;stroke-miterlimit:10;stroke-dasharray:4,4;" x1="233.5" y1="2684" x2="361.9" y2="2555.6"/>
<line style="fill:none;stroke:#00AEEF;stroke-miterlimit:10;stroke-dasharray:4,4;" x1="354.4" y1="2830" x2="233.5" y2="2709.1"/>
<g>
	<g>
		<line style="fill:none;stroke:#00AEEF;stroke-miterlimit:10;" x1="260" y1="2850.9" x2="260" y2="2848.9"/>
		
			<line style="fill:none;stroke:#00AEEF;stroke-miterlimit:10;stroke-dasharray:4.0181,4.0181;" x1="260" y1="2844.9" x2="260" y2="2525.4"/>
		<line style="fill:none;stroke:#00AEEF;stroke-miterlimit:10;" x1="260" y1="2523.4" x2="260" y2="2521.4"/>
	</g>
</g>
<g>
	<g>
		<line style="fill:none;stroke:#00AEEF;stroke-miterlimit:10;" x1="311.1" y1="2850.9" x2="311.1" y2="2848.9"/>
		
			<line style="fill:none;stroke:#00AEEF;stroke-miterlimit:10;stroke-dasharray:4.0181,4.0181;" x1="311.1" y1="2844.9" x2="311.1" y2="2525.4"/>
		<line style="fill:none;stroke:#00AEEF;stroke-miterlimit:10;" x1="311.1" y1="2523.4" x2="311.1" y2="2521.4"/>
	</g>
</g>
<text transform="matrix(1 0 0 1 64.71 2421.1055)" style="font-family:'Telex-Regular'; font-size:18px;">Transforming counterforms</text>
<text transform="matrix(1 0 0 1 259.999 2501.1055)" style="font-family:'Telex-Regular'; font-size:18px;">Depth</text>
<text transform="matrix(1 0 0 1 371.999 2549.1055)" style="font-family:'Telex-Regular'; font-size:18px;">45ยบ</text>
<text transform="matrix(1 0 0 1 371.999 2840.1055)" style="font-family:'Telex-Regular'; font-size:18px;">45ยบ</text>
<line style="fill:none;stroke:#000000;stroke-miterlimit:10;" x1="263.4" y1="2530.9" x2="311.1" y2="2530.9"/>
<polygon points="265.7,2533.7 260,2530.9 265.7,2528 "/>
<text transform="matrix(1 0 0 1 485 2509)" style="font-family:'Telex-Regular'; font-size:18px;">Area mesured</text>
<text transform="matrix(1 0 0 1 729 2509)" style="font-family:'Telex-Regular'; font-size:18px;">Resulting area</text>
<rect x="558.2" y="2569.5" style="fill:#00AEEF;" width="4.8" height="257.5"/>
<polygon style="fill:#6D6E71;" points="814.2,2569.5 785.8,2569.5 793.2,2574.5 800.8,2579.5 808.2,2584.5 810.2,2589.5 
	808.2,2594.5 806.2,2599.5 803.8,2604.5 801.8,2609.5 799.2,2614.5 797.2,2619.5 789.8,2624.5 782.2,2629.5 774.8,2634.5 
	767.2,2639.5 762.8,2644.5 762.8,2649.5 762.8,2654.5 762.8,2659.5 762.8,2664.5 762.8,2669.5 762.8,2674.5 762.8,2679.5 
	762.8,2684.5 762.8,2689.5 762.8,2694.5 762.8,2699.5 762.8,2704.5 762.8,2709.5 762.8,2714.5 762.8,2719.5 762.8,2724.5 
	762.8,2729.5 762.8,2734.5 762.8,2739.5 762.8,2744.5 764.8,2749.5 772.2,2754.5 779.8,2759.5 787.2,2764.5 794.8,2769.5 
	802.2,2774.5 804.2,2779.5 805.8,2784.5 807.2,2789.5 809.2,2794.5 810.8,2799.5 812.2,2804.5 814.2,2809.5 806.8,2814.5 
	799.2,2819.5 791.8,2824.5 814.2,2827 819,2827 819,2569.5 "/>
<text transform="matrix(1 0 0 1 444.3965 2914.3379)" style="font-family:'Telex-Regular'; font-size:12.167px;">White area without sidebearings</text>
<text transform="matrix(1 0 0 1 444.3965 2971.9541)"><tspan x="0" y="0" style="font-family:'Telex-Regular'; font-size:12.167px;">White area compensation</tspan><tspan x="0" y="14.6" style="font-family:'Telex-Regular'; font-size:12.167px;">to equalize area parameter</tspan></text>
<rect x="401.8" y="2897.3" style="fill:#8DC63F;" width="22.3" height="22.3"/>
<text transform="matrix(1 0 0 1 444.3955 3042.499)" style="font-family:'Telex-Regular'; font-size:12.167px;">Contour area + Compensation</text>
<rect x="401.8" y="3025.5" style="fill:#6D6E71;" width="22.3" height="22.3"/>
<rect x="401.8" y="2962.1" style="fill:#00AEEF;" width="22.3" height="22.3"/>
<path d="M621.4,3524.8v25.9c-8.1,9.3-21.5,15.7-35.2,15.7c-13.9,0-22.3-6.4-22.3-17.9c0-14.9,14.9-23.7,40.4-23.7H621.4z
	 M595.4,3456.5c-14.9,0-32.1,3.9-46.7,10.8l6.4,18.6c13.5-5.6,27.6-9.1,38.7-9.1c17.6,0,26.9,8.8,27.6,26.9v3.4h-18.6
	c-39.1,0-61.9,15.7-61.9,42.1c0,22.8,16.1,37.4,41.1,37.4c15.7,0,29.4-5.9,41.4-17.1l3.4,14.7h17.6v-80
	C644.4,3473.6,626.8,3456.5,595.4,3456.5z"/>
<path d="M403,3459.8v125.8h23v-88.8c7.8-11.7,21.8-18.8,36.7-18.8c16.9,0,24.2,8.1,24.2,26.7v81h23v-82.7
	c0-29.4-14.4-45.3-41.3-45.3c-18.1,0-32.3,6.4-44.3,19.8l-2.7-17.6H403z"/>
<polygon style="fill:#8DC63F;" points="540.9,3458.6 540.9,3584.6 562.9,3584.3 559.2,3581.9 555.6,3579.4 552.6,3577 549.9,3574.6 
	548,3572.1 546.3,3569.7 544.8,3567.2 543.8,3564.8 542.8,3562.3 542.1,3559.9 541.6,3557.4 541.1,3555 540.9,3552.5 540.9,3550.1 
	540.9,3547.6 541.1,3545.2 541.4,3542.7 541.9,3540.3 542.6,3537.8 543.3,3535.4 544.3,3533 545.8,3530.5 547.2,3528.1 
	549.2,3525.6 551.4,3523.2 554.1,3520.7 557.3,3518.3 560.9,3515.8 564.6,3513.4 566.1,3510.9 566.1,3508.5 566.1,3506 
	566.1,3503.6 566.1,3501.1 566.1,3498.7 566.1,3496.3 566.1,3493.8 565.4,3491.4 561.7,3488.9 558,3486.5 554.3,3484 553.6,3481.6 
	552.6,3479.1 551.9,3476.7 551.2,3474.2 550.2,3471.8 549.4,3469.3 549.7,3466.9 553.4,3464.4 557,3462 560.7,3459.6 "/>
<polygon style="fill:#8DC63F;" points="510,3458.6 510,3584.6 510,3584.3 510,3581.9 510,3579.4 510,3577 510,3574.6 510,3572.1 
	510,3569.7 510,3567.2 510,3564.8 510,3562.3 510,3559.9 510,3557.4 510,3555 510,3552.5 510,3550.1 510,3547.6 510,3545.2 
	510,3542.7 510,3540.3 510,3537.8 510,3535.4 510,3533 510,3530.5 510,3528.1 510,3525.6 510,3523.2 510,3520.7 510,3518.3 
	510,3515.8 510,3513.4 510,3510.9 510,3508.5 510,3506 510,3503.6 510,3501.1 510,3498.7 509.7,3496.3 509.5,3493.8 509.2,3491.4 
	509,3488.9 508.5,3486.5 507.8,3484 507,3481.6 506.3,3479.1 505.1,3476.7 503.9,3474.2 502.4,3471.8 500.4,3469.3 498.2,3466.9 
	495.5,3464.4 492.1,3462 488.4,3459.6 "/>
<path d="M317.5,3524.8v25.9c-8.1,9.3-21.5,15.7-35.2,15.7c-13.9,0-22.3-6.4-22.3-17.9c0-14.9,14.9-23.7,40.4-23.7H317.5z
	 M291.6,3456.5c-14.9,0-32.1,3.9-46.7,10.8l6.4,18.6c13.5-5.6,27.6-9.1,38.7-9.1c17.6,0,26.9,8.8,27.6,26.9v3.4h-18.6
	c-39.1,0-61.9,15.7-61.9,42.1c0,22.8,16.1,37.4,41.1,37.4c15.7,0,29.4-5.9,41.3-17.1l3.4,14.7h17.6v-80
	C340.5,3473.6,322.9,3456.5,291.6,3456.5z"/>
<path d="M97.2,3459.8v125.8h23v-88.8c7.8-11.7,21.8-18.8,36.7-18.8c16.9,0,24.2,8.1,24.2,26.7v81h23v-82.7
	c0-29.4-14.4-45.3-41.3-45.3c-18.1,0-32.3,6.4-44.3,19.8l-2.7-17.6H97.2z"/>
<polygon style="fill:#8DC63F;" points="204.1,3458.6 204.1,3584.6 204.1,3584.3 204.1,3581.9 204.1,3579.4 204.1,3577 204.1,3574.6 
	204.1,3572.1 204.1,3569.7 204.1,3567.2 204.1,3564.8 204.1,3562.3 204.1,3559.9 204.1,3557.4 204.1,3555 204.1,3552.5 
	204.1,3550.1 204.1,3547.6 204.1,3545.2 204.1,3542.7 204.1,3540.3 204.1,3537.8 204.1,3535.4 204.1,3533 204.1,3530.5 
	204.1,3528.1 204.1,3525.6 204.1,3523.2 204.1,3520.7 204.1,3518.3 204.1,3515.8 204.1,3513.4 204.1,3510.9 204.1,3508.5 
	204.1,3506 204.1,3503.6 204.1,3501.1 204.1,3498.7 203.9,3496.3 203.6,3493.8 203.4,3491.4 203.1,3488.9 202.6,3486.5 201.9,3484 
	201.2,3481.6 200.4,3479.1 199.2,3476.7 198,3474.2 196.5,3471.8 194.6,3469.3 192.4,3466.9 189.7,3464.4 186.2,3462 182.6,3459.6 
	"/>
<text transform="matrix(1 0 0 1 456.5098 3655.6997)" style="font-family:'Telex-Regular'; font-size:18px;">paramDepth = 20</text>
<text transform="matrix(1 0 0 1 162.3096 3655.6997)" style="font-family:'Telex-Regular'; font-size:18px;">paramDepth = 10</text>
<text transform="matrix(1 0 0 1 318.4131 3759.9546)" style="font-family:'Telex-Regular'; font-size:18px;">Greater depth = more inner white = less spacing</text>
<text transform="matrix(1 0 0 1 454.7158 3800.4517)" style="font-family:'Telex-Regular'; font-size:18px;">(at equal area)</text>
<path d="M930,3524.8v25.9c-8.1,9.3-21.5,15.7-35.2,15.7c-13.9,0-22.3-6.4-22.3-17.9c0-14.9,14.9-23.7,40.4-23.7H930z M904.1,3456.5
	c-14.9,0-32.1,3.9-46.7,10.8l6.4,18.6c13.5-5.6,27.6-9.1,38.7-9.1c17.6,0,26.9,8.8,27.6,26.9v3.4h-18.6c-39.1,0-61.9,15.7-61.9,42.1
	c0,22.8,16.1,37.4,41.1,37.4c15.7,0,29.4-5.9,41.3-17.1l3.4,14.7H953v-80C953,3473.6,935.4,3456.5,904.1,3456.5z"/>
<path d="M719.6,3459.8v125.8h23v-88.8c7.8-11.7,21.8-18.8,36.7-18.8c16.9,0,24.2,8.1,24.2,26.7v81h23v-82.7
	c0-29.4-14.4-45.3-41.4-45.3c-18.1,0-32.3,6.4-44.3,19.8l-2.7-17.6H719.6z"/>
<text transform="matrix(1 0 0 1 743.8838 3655.6997)" style="font-family:'Telex-Regular'; font-size:18px;">paramDepth = 25</text>
<polygon style="fill:#8DC63F;" points="849.6,3458.6 849.6,3584.6 871.6,3584.3 867.9,3581.9 864.2,3579.4 861.3,3577 858.6,3574.6 
	856.6,3572.1 854.9,3569.7 853.5,3567.2 852.5,3564.8 851.5,3562.3 850.8,3559.9 850.3,3557.4 849.8,3555 849.6,3552.5 
	849.6,3550.1 849.6,3547.6 849.8,3545.2 850,3542.7 850.5,3540.3 851.3,3537.8 852,3535.4 853,3533 854.4,3530.5 855.9,3528.1 
	857.9,3525.6 860.1,3523.2 862.8,3520.7 865.9,3518.3 869.6,3515.8 873.3,3513.4 877,3510.9 880.6,3508.5 881.1,3506 881.1,3503.6 
	881.1,3501.1 881.1,3498.7 881.1,3496.3 877.7,3493.8 874,3491.4 870.3,3488.9 866.7,3486.5 863,3484 862.3,3481.6 861.3,3479.1 
	860.6,3476.7 859.8,3474.2 858.8,3471.8 858.1,3469.3 858.4,3466.9 862,3464.4 865.7,3462 869.4,3459.6 "/>
<polygon style="fill:#8DC63F;" points="826.5,3458.6 826.5,3584.6 826.5,3584.3 826.5,3581.9 826.5,3579.4 826.5,3577 826.5,3574.6 
	826.5,3572.1 826.5,3569.7 826.5,3567.2 826.5,3564.8 826.5,3562.3 826.5,3559.9 826.5,3557.4 826.5,3555 826.5,3552.5 
	826.5,3550.1 826.5,3547.6 826.5,3545.2 826.5,3542.7 826.5,3540.3 826.5,3537.8 826.5,3535.4 826.5,3533 826.5,3530.5 
	826.5,3528.1 826.5,3525.6 826.5,3523.2 826.5,3520.7 826.5,3518.3 826.5,3515.8 826.5,3513.4 826.5,3510.9 826.5,3508.5 
	826.5,3506 826.5,3503.6 826.5,3501.1 826.5,3498.7 826.3,3496.3 826,3493.8 825.8,3491.4 825.5,3488.9 825,3486.5 824.3,3484 
	823.6,3481.6 822.8,3479.1 821.6,3476.7 820.4,3474.2 817,3469.3 814.8,3466.9 812.1,3464.4 808.6,3462 805,3459.6 "/>
<polygon style="fill:#8DC63F;" points="237,3458.6 237,3584.6 249.5,3584.3 249.5,3581.9 249.5,3579.4 248.8,3577 246.1,3574.6 
	244.1,3572.1 242.4,3569.7 240.9,3567.2 240,3564.8 239,3562.3 238.2,3559.9 237.8,3557.4 237.3,3555 237,3552.5 237,3550.1 
	237,3547.6 237.3,3545.2 237.5,3542.7 238,3540.3 238.7,3537.8 239.5,3535.4 240.4,3533 241.9,3530.5 243.4,3528.1 245.3,3525.6 
	247.5,3523.2 249.5,3520.7 249.5,3518.3 249.5,3515.8 249.5,3513.4 249.5,3510.9 249.5,3508.5 249.5,3506 249.5,3503.6 
	249.5,3501.1 249.5,3498.7 249.5,3496.3 249.5,3493.8 249.5,3491.4 249.5,3488.9 249.5,3486.5 249.5,3484 249.5,3481.6 
	248.8,3479.1 248,3476.7 247.3,3474.2 246.3,3471.8 245.6,3469.3 245.8,3466.9 249.5,3464.4 249.5,3462 249.5,3459.6 "/>
<polygon style="fill:#A7A9AC;" points="237,3275.7 194.1,3275.7 172.6,3276.7 176.2,3279.1 179.7,3281.6 182.4,3284 184.6,3286.5 
	186.5,3288.9 188,3291.4 189.2,3293.8 190.4,3296.3 191.2,3298.7 191.9,3301.2 192.6,3303.6 193.1,3306.1 193.4,3308.5 193.6,3311 
	193.9,3313.4 194.1,3315.8 194.1,3318.3 194.1,3320.7 194.1,3323.2 194.1,3325.6 194.1,3328.1 194.1,3330.5 194.1,3333 
	194.1,3335.4 194.1,3337.9 194.1,3340.3 194.1,3342.8 194.1,3345.2 194.1,3347.7 194.1,3350.1 194.1,3352.5 194.1,3355 
	194.1,3357.4 194.1,3359.9 194.1,3362.3 194.1,3364.8 194.1,3367.2 194.1,3369.7 194.1,3372.1 194.1,3374.6 194.1,3377 
	194.1,3379.5 194.1,3381.9 194.1,3384.4 194.1,3386.8 194.1,3389.2 194.1,3391.7 194.1,3394.1 194.1,3396.6 194.1,3399 
	194.1,3401.5 194.1,3401.7 237,3401.7 249.5,3401.5 249.5,3399 249.5,3396.6 248.8,3394.1 246.1,3391.7 244.1,3389.2 242.4,3386.8 
	240.9,3384.4 240,3381.9 239,3379.5 238.2,3377 237.8,3374.6 237.3,3372.1 237,3369.7 237,3367.2 237,3364.8 237.3,3362.3 
	237.5,3359.9 238,3357.4 238.7,3355 239.5,3352.5 240.4,3350.1 241.9,3347.7 243.4,3345.2 245.3,3342.8 247.5,3340.3 249.5,3337.9 
	249.5,3335.4 249.5,3333 249.5,3330.5 249.5,3328.1 249.5,3325.6 249.5,3323.2 249.5,3320.7 249.5,3318.3 249.5,3315.8 
	249.5,3313.4 249.5,3311 249.5,3308.5 249.5,3306.1 249.5,3303.6 249.5,3301.2 249.5,3298.7 248.8,3296.3 248,3293.8 247.3,3291.4 
	246.3,3288.9 245.6,3286.5 245.8,3284 249.5,3281.6 249.5,3279.1 249.5,3276.7 "/>
<polygon style="fill:#A7A9AC;" points="565.4,3308.5 561.7,3306.1 558,3303.6 554.3,3301.2 553.6,3298.7 552.6,3296.3 551.9,3293.8 
	551.2,3291.4 550.2,3288.9 549.4,3286.5 549.7,3284 553.4,3281.6 557,3279.1 560.7,3276.7 540.9,3275.7 514,3275.7 492.4,3276.7 
	496.1,3279.1 499.5,3281.6 502.2,3284 504.4,3286.5 506.4,3288.9 507.9,3291.4 509.1,3293.8 510.3,3296.3 511,3298.7 511.8,3301.2 
	512.5,3303.6 513,3306.1 513.2,3308.5 513.5,3311 513.7,3313.4 514,3315.8 514,3318.3 514,3320.7 514,3323.2 514,3325.6 514,3328.1 
	514,3330.5 514,3333 514,3335.4 514,3337.9 514,3340.3 514,3342.8 514,3345.2 514,3347.7 514,3350.1 514,3352.5 514,3355 
	514,3357.4 514,3359.9 514,3362.3 514,3364.8 514,3367.2 514,3369.7 514,3372.1 514,3374.6 514,3377 514,3379.5 514,3381.9 
	514,3384.4 514,3386.8 514,3389.2 514,3391.7 514,3394.1 514,3396.6 514,3399 514,3401.5 514,3401.7 540.9,3401.7 562.9,3401.5 
	559.2,3399 555.6,3396.6 552.6,3394.1 549.9,3391.7 548,3389.2 546.3,3386.8 544.8,3384.4 543.8,3381.9 542.8,3379.5 542.1,3377 
	541.6,3374.6 541.1,3372.1 540.9,3369.7 540.9,3367.2 540.9,3364.8 541.1,3362.3 541.4,3359.9 541.9,3357.4 542.6,3355 
	543.3,3352.5 544.3,3350.1 545.8,3347.7 547.2,3345.2 549.2,3342.8 551.4,3340.3 554.1,3337.9 557.3,3335.4 560.9,3333 
	564.6,3330.5 566.1,3328.1 566.1,3325.6 566.1,3323.2 566.1,3320.7 566.1,3318.3 566.1,3315.8 566.1,3313.4 566.1,3311 "/>
<polygon style="fill:#A7A9AC;" points="877.7,3311 874,3308.5 870.3,3306.1 866.7,3303.6 863,3301.2 862.3,3298.7 861.3,3296.3 
	860.6,3293.8 859.8,3291.4 858.8,3288.9 858.1,3286.5 858.4,3284 862,3281.6 865.7,3279.1 869.4,3276.7 849.6,3275.7 831.5,3275.7 
	810,3276.7 813.6,3279.1 817.1,3281.6 819.8,3284 822,3286.5 825.4,3291.4 826.6,3293.8 827.8,3296.3 828.6,3298.7 829.3,3301.2 
	830,3303.6 830.5,3306.1 830.8,3308.5 831,3311 831.3,3313.4 831.5,3315.8 831.5,3318.3 831.5,3320.7 831.5,3323.2 831.5,3325.6 
	831.5,3328.1 831.5,3330.5 831.5,3333 831.5,3335.4 831.5,3337.9 831.5,3340.3 831.5,3342.8 831.5,3345.2 831.5,3347.7 
	831.5,3350.1 831.5,3352.5 831.5,3355 831.5,3357.4 831.5,3359.9 831.5,3362.3 831.5,3364.8 831.5,3367.2 831.5,3369.7 
	831.5,3372.1 831.5,3374.6 831.5,3377 831.5,3379.5 831.5,3381.9 831.5,3384.4 831.5,3386.8 831.5,3389.2 831.5,3391.7 
	831.5,3394.1 831.5,3396.6 831.5,3399 831.5,3401.5 831.5,3401.7 849.6,3401.7 871.6,3401.5 867.9,3399 864.2,3396.6 861.3,3394.1 
	858.6,3391.7 856.6,3389.2 854.9,3386.8 853.5,3384.4 852.5,3381.9 851.5,3379.5 850.8,3377 850.3,3374.6 849.8,3372.1 
	849.6,3369.7 849.6,3367.2 849.6,3364.8 849.8,3362.3 850,3359.9 850.5,3357.4 851.3,3355 852,3352.5 853,3350.1 854.4,3347.7 
	855.9,3345.2 857.9,3342.8 860.1,3340.3 862.8,3337.9 865.9,3335.4 869.6,3333 873.3,3330.5 877,3328.1 880.6,3325.6 881.1,3323.2 
	881.1,3320.7 881.1,3318.3 881.1,3315.8 881.1,3313.4 "/>
<path d="M763.8,4094.1c-30.6,0-48.2,19.4-48.2,53s18,53.2,48.8,53.2c12.6,0,24.6-3.2,38.6-10l-6-14c-12.2,5.2-21.2,7.4-31.6,7.4
	c-19.8,0-30.6-12.8-30.6-36.2c0-24.2,9.8-36.8,29-36.8c14.2,0,22.2,8.2,23.4,24.2h-62v15.8h81.4v-4.2
	C806.6,4111.3,792.6,4094.1,763.8,4094.1z M672.4,4180.3l3.8,18.2h15v-149.8h-18.8V4180.3z M597.8,4148.9
	c0,32.8,16.4,51.4,45.2,51.4c15.8,0,27.4-7.6,38.6-25.6l-7.4-17.6c-3.4,16.6-14.8,26.6-30,26.6c-17.4,0-27.2-12.6-27.2-34.8
	c0-24,12.6-38.2,33.8-38.2c9,0,12,0.6,31.4,5.4v-17c-16.8-4-23.4-5-31.6-5C617.6,4094.1,597.8,4114.7,597.8,4148.9z M555.6,4150.1
	v21.2c-6.6,7.6-17.6,12.8-28.8,12.8c-11.4,0-18.2-5.2-18.2-14.6c0-12.2,12.2-19.4,33-19.4H555.6z M534.4,4094.3
	c-12.2,0-26.2,3.2-38.2,8.8l5.2,15.2c11-4.6,22.6-7.4,31.6-7.4c14.4,0,22,7.2,22.6,22v2.8h-15.2c-32,0-50.6,12.8-50.6,34.4
	c0,18.6,13.2,30.6,33.6,30.6c12.8,0,24-4.8,33.8-14l2.8,12h14.4v-65.4C574.4,4108.3,560,4094.3,534.4,4094.3z M424,4185.3v13.4h13.2
	l36.6-102.8h-19l-19.6,54.8C430.8,4162.9,427.8,4174.5,424,4185.3z M377,4095.9l36.6,102.8h14v-13.4c-3.8-10.8-7-22.6-11.2-34.6
	l-19.6-54.8H377z M268.4,4095.9v102.8h18.8v-72.6c6.4-9.6,17.8-15.4,30-15.4c13.8,0,19.8,6.6,19.8,21.8v66.2h18.8v-67.6
	c0-24-11.8-37-33.8-37c-14.8,0-26.4,5.2-36.2,16.2l-2.2-14.4H268.4z M217.4,4057.9v19.2h18.8v-19.2H217.4z M217.4,4095.9v102.8h18.8
	v-102.8H217.4z"/>
<text transform="matrix(1 0 0 1 393.3291 4271.5908)"><tspan x="0" y="0" style="font-family:'Telex-Regular'; font-size:18px;">paramArea</tspan><tspan x="0" y="25.6" style="font-family:'Telex-Regular'; font-size:18px;">paramDepth</tspan></text>
<text transform="matrix(1 0 0 1 565.9033 4271.5908)"><tspan x="0" y="0" style="font-family:'Telex-Regular'; font-size:18px;">400</tspan><tspan x="13.4" y="25.6" style="font-family:'Telex-Regular'; font-size:18px;">10</tspan></text>
<text transform="matrix(1 0 0 1 393.3291 4566.7744)"><tspan x="0" y="0" style="font-family:'Telex-Regular'; font-size:18px;">paramArea</tspan><tspan x="0" y="25.6" style="font-family:'Telex-Regular'; font-size:18px;">paramDepth</tspan></text>
<text transform="matrix(1 0 0 1 565.9033 4566.7744)"><tspan x="0" y="0" style="font-family:'Telex-Regular'; font-size:18px;">400</tspan><tspan x="12.3" y="25.6" style="font-family:'Telex-Regular'; font-size:18px;">20</tspan></text>
<path d="M756.1,4402.8c-30.6,0-48.2,19.4-48.2,53c0,33.6,18,53.2,48.8,53.2c12.6,0,24.6-3.2,38.6-10l-6-14
	c-12.2,5.2-21.2,7.4-31.6,7.4c-19.8,0-30.6-12.8-30.6-36.2c0-24.2,9.8-36.8,29-36.8c14.2,0,22.2,8.2,23.4,24.2h-62v15.8h81.4v-4.2
	C798.9,4420,784.9,4402.8,756.1,4402.8z M664.7,4489l3.8,18.2h15v-149.8h-18.8V4489z M590.1,4457.6c0,32.8,16.4,51.4,45.2,51.4
	c15.8,0,27.4-7.6,38.6-25.6l-7.4-17.6c-3.4,16.6-14.8,26.6-30,26.6c-17.4,0-27.2-12.6-27.2-34.8c0-24,12.6-38.2,33.8-38.2
	c9,0,12,0.6,31.4,5.4v-17c-16.8-4-23.4-5-31.6-5C609.9,4402.8,590.1,4423.4,590.1,4457.6z M548.3,4458.8v21.2
	c-6.6,7.6-17.6,12.8-28.8,12.8c-11.4,0-18.2-5.2-18.2-14.6c0-12.2,12.2-19.4,33-19.4H548.3z M527.1,4403c-12.2,0-26.2,3.2-38.2,8.8
	l5.2,15.2c11-4.6,22.6-7.4,31.6-7.4c14.4,0,22,7.2,22.6,22v2.8h-15.2c-32,0-50.6,12.8-50.6,34.4c0,18.6,13.2,30.6,33.6,30.6
	c12.8,0,24-4.8,33.8-14l2.8,12h14.4V4442C567.1,4417,552.7,4403,527.1,4403z M425.5,4494v13.4h13.2l36.6-102.8h-19l-19.6,54.8
	C432.3,4471.6,429.3,4483.2,425.5,4494z M378.5,4404.6l36.6,102.8h14V4494c-3.8-10.8-7-22.6-11.2-34.6l-19.6-54.8H378.5z
	 M276.1,4404.6v102.8h18.8v-72.6c6.4-9.6,17.8-15.4,30-15.4c13.8,0,19.8,6.6,19.8,21.8v66.2h18.8v-67.6c0-24-11.8-37-33.8-37
	c-14.8,0-26.4,5.2-36.2,16.2l-2.2-14.4H276.1z M225.1,4366.6v19.2h18.8v-19.2H225.1z M225.1,4404.6v102.8h18.8v-102.8H225.1z"/>
<g>
	<path style="opacity:0.5;fill:#EE2A7B;" d="M748.4,4931.9c-30.6,0-48.2,19.4-48.2,53s18,53.2,48.8,53.2c12.6,0,24.6-3.2,38.6-10
		l-6-14c-12.2,5.2-21.2,7.4-31.6,7.4c-19.8,0-30.6-12.8-30.6-36.2c0-24.2,9.8-36.8,29-36.8c14.2,0,22.2,8.2,23.4,24.2h-62v15.8h81.4
		v-4.2C791.2,4949.1,777.2,4931.9,748.4,4931.9z M657,5018.1l3.8,18.2h15v-149.8H657V5018.1z M582.4,4986.8
		c0,32.8,16.4,51.4,45.2,51.4c15.8,0,27.4-7.6,38.6-25.6l-7.4-17.6c-3.4,16.6-14.8,26.6-30,26.6c-17.4,0-27.2-12.6-27.2-34.8
		c0-24,12.6-38.2,33.8-38.2c9,0,12,0.6,31.4,5.4v-17c-16.8-4-23.4-5-31.6-5C602.2,4931.9,582.4,4952.5,582.4,4986.8z M540.6,4987.9
		v21.2c-6.6,7.6-17.6,12.8-28.8,12.8c-11.4,0-18.2-5.2-18.2-14.6c0-12.2,12.2-19.4,33-19.4H540.6z M519.4,4932.1
		c-12.2,0-26.2,3.2-38.2,8.8l5.2,15.2c11-4.6,22.6-7.4,31.6-7.4c14.4,0,22,7.2,22.6,22v2.8h-15.2c-32,0-50.6,12.8-50.6,34.4
		c0,18.6,13.2,30.6,33.6,30.6c12.8,0,24-4.8,33.8-14l2.8,12h14.4v-65.4C559.4,4946.1,545,4932.1,519.4,4932.1z M417.8,5023.1v13.4
		H431l36.6-102.8h-19l-19.6,54.8C424.6,5000.8,421.6,5012.3,417.8,5023.1z M370.8,4933.8l36.6,102.8h14v-13.4
		c-3.8-10.8-7-22.6-11.2-34.6l-19.6-54.8H370.8z M268.4,4933.8v102.8h18.8v-72.6c6.4-9.6,17.8-15.4,30-15.4
		c13.8,0,19.8,6.6,19.8,21.8v66.2h18.8v-67.6c0-24-11.8-37-33.8-37c-14.8,0-26.4,5.2-36.2,16.2l-2.2-14.4H268.4z M217.4,4895.8v19.2
		h18.8v-19.2H217.4z M217.4,4933.8v102.8h18.8v-102.8H217.4z"/>
	<path style="opacity:0.5;fill:#00AEEF;" d="M763.8,4932.4c-30.6,0-48.2,19.4-48.2,53c0,33.6,18,53.2,48.8,53.2
		c12.6,0,24.6-3.2,38.6-10l-6-14c-12.2,5.2-21.2,7.4-31.6,7.4c-19.8,0-30.6-12.8-30.6-36.2c0-24.2,9.8-36.8,29-36.8
		c14.2,0,22.2,8.2,23.4,24.2h-62v15.8h81.4v-4.2C806.6,4949.6,792.6,4932.4,763.8,4932.4z M672.4,5018.6l3.8,18.2h15V4887h-18.8
		V5018.6z M597.8,4987.2c0,32.8,16.4,51.4,45.2,51.4c15.8,0,27.4-7.6,38.6-25.6l-7.4-17.6c-3.4,16.6-14.8,26.6-30,26.6
		c-17.4,0-27.2-12.6-27.2-34.8c0-24,12.6-38.2,33.8-38.2c9,0,12,0.6,31.4,5.4v-17c-16.8-4-23.4-5-31.6-5
		C617.6,4932.4,597.8,4953,597.8,4987.2z M555.6,4988.4v21.2c-6.6,7.6-17.6,12.8-28.8,12.8c-11.4,0-18.2-5.2-18.2-14.6
		c0-12.2,12.2-19.4,33-19.4H555.6z M534.4,4932.6c-12.2,0-26.2,3.2-38.2,8.8l5.2,15.2c11-4.6,22.6-7.4,31.6-7.4
		c14.4,0,22,7.2,22.6,22v2.8h-15.2c-32,0-50.6,12.8-50.6,34.4c0,18.6,13.2,30.6,33.6,30.6c12.8,0,24-4.8,33.8-14l2.8,12h14.4v-65.4
		C574.4,4946.6,560,4932.6,534.4,4932.6z M424,5023.6v13.4h13.2l36.6-102.8h-19l-19.6,54.8C430.8,5001.2,427.8,5012.8,424,5023.6z
		 M377,4934.2l36.6,102.8h14v-13.4c-3.8-10.8-7-22.6-11.2-34.6l-19.6-54.8H377z M268.4,4934.2V5037h18.8v-72.6
		c6.4-9.6,17.8-15.4,30-15.4c13.8,0,19.8,6.6,19.8,21.8v66.2h18.8v-67.6c0-24-11.8-37-33.8-37c-14.8,0-26.4,5.2-36.2,16.2l-2.2-14.4
		H268.4z M217.4,4896.2v19.2h18.8v-19.2H217.4z M217.4,4934.2V5037h18.8v-102.8H217.4z"/>
</g>
<g>
	<text transform="matrix(1 0 0 1 285.7046 5090.0898)"><tspan x="0" y="0" style="fill:#00AEEF; font-family:'Telex-Regular'; font-size:17.7448px;">paramArea</tspan><tspan x="0" y="25.2" style="fill:#00AEEF; font-family:'Telex-Regular'; font-size:17.7448px;">paramDepth</tspan></text>
	<text transform="matrix(1 0 0 1 455.832 5090.0898)"><tspan x="0" y="0" style="fill:#00AEEF; font-family:'Telex-Regular'; font-size:17.7448px;">400</tspan><tspan x="13.2" y="25.2" style="fill:#00AEEF; font-family:'Telex-Regular'; font-size:17.7448px;">10</tspan></text>
</g>
<g>
	<text transform="matrix(1 0 0 1 600.6587 5085.4463)"><tspan x="0" y="0" style="fill:#EC008C; font-family:'Telex-Regular'; font-size:17.7448px;">paramArea</tspan><tspan x="0" y="25.2" style="fill:#EC008C; font-family:'Telex-Regular'; font-size:17.7448px;">paramDepth</tspan></text>
	<text transform="matrix(1 0 0 1 770.7856 5085.4463)"><tspan x="0" y="0" style="fill:#EC008C; font-family:'Telex-Regular'; font-size:17.7448px;">400</tspan><tspan x="12.1" y="25.2" style="fill:#EC008C; font-family:'Telex-Regular'; font-size:17.7448px;">20</tspan></text>
</g>
<rect x="215.4" y="5082.3" style="fill:#00AEEF;" width="30.3" height="30.3"/>
<rect x="530.4" y="5082.3" style="fill:#EC008C;" width="30.3" height="30.3"/>
<text transform="matrix(1 0 0 1 124.0967 5364.1504)"><tspan x="0" y="0" style="font-family:'Telex-Regular'; font-size:18px;">Increasing depth will reduce spacing in open counterforms and rounded shapes (v, a.left, e.right) </tspan><tspan x="0" y="25.6" style="font-family:'Telex-Regular'; font-size:18px;">and remain the same on sides with vertical shapes (n.left, i)</tspan></text>
</svg>
